<?xml version="1.0" encoding="utf-8"?>
<!-- Generator: Adobe Illustrator 23.0.0, SVG Export Plug-In . SVG Version: 6.00 Build 0)  -->
<svg version="1.1" id="Layer_1" xmlns="http://www.w3.org/2000/svg" xmlns:xlink="http://www.w3.org/1999/xlink" x="0px" y="0px"
	 viewBox="0 0 512 512" style="enable-background:new 0 0 512 512;" xml:space="preserve">
<style type="text/css">
	.st0{fill:#704747;}
	.st1{fill:#FFFFFF;stroke:#000000;stroke-miterlimit:10;}
</style>
<path class="st0" d="M431.28,312.4c0,96.81-78.48,175.29-175.28,175.29c-96.81,0-175.28-78.48-175.28-175.29
	c0-0.75,0-1.51,0.01-2.27c0.2-61.17,8.71-198.28,211.63-291.8c17.87-8.24,37,8.76,30.89,27.46
	c-13.93,42.63-22.77,102.08,21.67,129.99c1.91,1.2,3.88,2.4,5.9,3.59c0.01,0,0.01,0.01,0.02,0.01
	C399.69,210.49,431.28,250.19,431.28,312.4z"/>
<path class="st1" d="M381.3,96.24"/>
</svg>
